<svg xmlns="http://www.w3.org/2000/svg" width="800" height="1120" viewBox="0 0 800 1120" role="img" aria-label="Default template preview">
  <rect width="800" height="1120" fill="#f3f4f6" />
  <rect x="18" y="18" width="764" height="1084" rx="6" fill="#ffffff" stroke="#d6dbe3" />

  <rect x="42" y="48" width="230" height="28" rx="6" fill="#111827" opacity="0.92" />

  <rect x="42" y="92" width="520" height="10" rx="5" fill="#64748b" />
  <rect x="42" y="116" width="620" height="10" rx="5" fill="#64748b" />
  <rect x="42" y="140" width="560" height="10" rx="5" fill="#2563eb" />

  <rect x="676" y="48" width="82" height="104" rx="8" fill="#95b5de" />
  <rect x="684" y="56" width="66" height="88" rx="6" fill="#5f86bb" />
  <rect x="710" y="78" width="16" height="16" rx="8" fill="#c8d8ee" />
  <rect x="699" y="100" width="38" height="36" rx="8" fill="#dce8f7" />

  <rect x="42" y="176" width="716" height="52" rx="2" fill="#e9eef9" />
  <rect x="42" y="176" width="4" height="52" fill="#4f79dd" />
  <rect x="58" y="192" width="110" height="20" rx="6" fill="#3f6fd8" />

  <rect x="42" y="252" width="210" height="24" rx="6" fill="#111827" />
  <rect x="262" y="258" width="160" height="14" rx="7" fill="#94a3b8" />
  <rect x="640" y="256" width="118" height="14" rx="7" fill="#94a3b8" />
  <rect x="42" y="292" width="300" height="14" rx="7" fill="#94a3b8" />
  <rect x="42" y="324" width="340" height="14" rx="7" fill="#111827" opacity="0.9" />

  <rect x="42" y="368" width="716" height="52" rx="2" fill="#e9eef9" />
  <rect x="42" y="368" width="4" height="52" fill="#4f79dd" />
  <rect x="58" y="384" width="110" height="20" rx="6" fill="#3f6fd8" />

  <circle cx="48" cy="452" r="4" fill="#111827" />
  <rect x="62" y="446" width="690" height="14" rx="7" fill="#111827" opacity="0.9" />
  <circle cx="48" cy="486" r="4" fill="#111827" />
  <rect x="62" y="480" width="680" height="14" rx="7" fill="#111827" opacity="0.9" />
  <circle cx="48" cy="520" r="4" fill="#111827" />
  <rect x="62" y="514" width="688" height="14" rx="7" fill="#111827" opacity="0.9" />
  <circle cx="48" cy="554" r="4" fill="#111827" />
  <rect x="62" y="548" width="670" height="14" rx="7" fill="#111827" opacity="0.9" />
  <circle cx="48" cy="588" r="4" fill="#111827" />
  <rect x="62" y="582" width="694" height="14" rx="7" fill="#111827" opacity="0.9" />
  <circle cx="48" cy="622" r="4" fill="#111827" />
  <rect x="62" y="616" width="672" height="14" rx="7" fill="#111827" opacity="0.9" />
  <circle cx="48" cy="656" r="4" fill="#111827" />
  <rect x="62" y="650" width="686" height="14" rx="7" fill="#111827" opacity="0.9" />
  <circle cx="48" cy="690" r="4" fill="#111827" />
  <rect x="62" y="684" width="676" height="14" rx="7" fill="#111827" opacity="0.9" />
  <circle cx="48" cy="724" r="4" fill="#111827" />
  <rect x="62" y="718" width="692" height="14" rx="7" fill="#111827" opacity="0.9" />
  <circle cx="48" cy="758" r="4" fill="#111827" />
  <rect x="62" y="752" width="682" height="14" rx="7" fill="#111827" opacity="0.9" />

  <rect x="42" y="804" width="716" height="52" rx="2" fill="#e9eef9" />
  <rect x="42" y="804" width="4" height="52" fill="#4f79dd" />
  <rect x="58" y="820" width="110" height="20" rx="6" fill="#3f6fd8" />

  <rect x="42" y="880" width="230" height="24" rx="6" fill="#111827" />
  <rect x="280" y="886" width="210" height="14" rx="7" fill="#94a3b8" />
  <rect x="640" y="886" width="118" height="14" rx="7" fill="#94a3b8" />
  <rect x="42" y="920" width="700" height="14" rx="7" fill="#111827" opacity="0.9" />
</svg>
